{
	"asset":{
		"generator":"Khronos glTF Blender I/O v3.6.27",
		"version":"2.0"
	},
	"scene":0,
	"scenes":[
		{
			"name":"Scene",
			"nodes":[
				0,
				1,
				2,
				3,
				4,
				5,
				6
			]
		}
	],
	"nodes":[
		{
			"mesh":0,
			"name":"Curve"
		},
		{
			"mesh":1,
			"name":"Curve.001"
		},
		{
			"mesh":2,
			"name":"Curve.002"
		},
		{
			"mesh":3,
			"name":"Curve.003"
		},
		{
			"mesh":4,
			"name":"Curve.004"
		},
		{
			"mesh":5,
			"name":"Curve.005"
		},
		{
			"mesh":6,
			"name":"Curve.006"
		}
	],
	"materials":[
		{
			"doubleSided":true,
			"name":"codeq.001",
			"pbrMetallicRoughness":{
				"baseColorFactor":[
					0.00533284479752183,
					0.00533284479752183,
					0.00533284479752183,
					1
				],
				"metallicFactor":0,
				"roughnessFactor":0.4000000059604645
			}
		},
		{
			"doubleSided":true,
			"name":"SVGMat",
			"pbrMetallicRoughness":{
				"baseColorFactor":[
					0,
					0,
					0,
					1
				],
				"metallicFactor":1,
				"roughnessFactor":0.4000000059604645
			}
		},
		{
			"doubleSided":true,
			"name":"Material.003",
			"pbrMetallicRoughness":{
				"baseColorFactor":[
					0.8000000715255737,
					0.5905163884162903,
					0,
					1
				],
				"metallicFactor":0,
				"roughnessFactor":0.4000000059604645
			}
		},
		{
			"doubleSided":true,
			"name":"Material.001",
			"pbrMetallicRoughness":{
				"baseColorFactor":[
					0.03521868214011192,
					0,
					0.8000000715255737,
					1
				],
				"metallicFactor":0,
				"roughnessFactor":0.4000000059604645
			}
		},
		{
			"doubleSided":true,
			"name":"Material.002",
			"pbrMetallicRoughness":{
				"baseColorFactor":[
					0.21588276326656342,
					0.8000000715255737,
					0,
					1
				],
				"metallicFactor":0,
				"roughnessFactor":0.4000000059604645
			}
		}
	],
	"meshes":[
		{
			"name":"Curve",
			"primitives":[
				{
					"attributes":{
						"POSITION":0,
						"NORMAL":1,
						"TEXCOORD_0":2
					},
					"indices":3,
					"material":0
				}
			]
		},
		{
			"name":"Curve.001",
			"primitives":[
				{
					"attributes":{
						"POSITION":4,
						"NORMAL":5,
						"TEXCOORD_0":6
					},
					"indices":7,
					"material":1
				}
			]
		},
		{
			"name":"Curve.002",
			"primitives":[
				{
					"attributes":{
						"POSITION":8,
						"NORMAL":9,
						"TEXCOORD_0":10
					},
					"indices":3,
					"material":1
				}
			]
		},
		{
			"name":"Curve.003",
			"primitives":[
				{
					"attributes":{
						"POSITION":11,
						"NORMAL":12,
						"TEXCOORD_0":13
					},
					"indices":14,
					"material":1
				}
			]
		},
		{
			"name":"Curve.004",
			"primitives":[
				{
					"attributes":{
						"POSITION":15,
						"NORMAL":16,
						"TEXCOORD_0":17
					},
					"indices":18,
					"material":2
				}
			]
		},
		{
			"name":"Curve.005",
			"primitives":[
				{
					"attributes":{
						"POSITION":19,
						"NORMAL":20,
						"TEXCOORD_0":21
					},
					"indices":22,
					"material":3
				}
			]
		},
		{
			"name":"Curve.006",
			"primitives":[
				{
					"attributes":{
						"POSITION":23,
						"NORMAL":24,
						"TEXCOORD_0":25
					},
					"indices":22,
					"material":4
				}
			]
		}
	],
	"accessors":[
		{
			"bufferView":0,
			"componentType":5126,
			"count":4,
			"max":[
				0.22225454449653625,
				0,
				-0.04585236310958862
			],
			"min":[
				0.0035278499126434326,
				0,
				-0.1939907670021057
			],
			"type":"VEC3"
		},
		{
			"bufferView":1,
			"componentType":5126,
			"count":4,
			"type":"VEC3"
		},
		{
			"bufferView":2,
			"componentType":5126,
			"count":4,
			"type":"VEC2"
		},
		{
			"bufferView":3,
			"componentType":5123,
			"count":6,
			"type":"SCALAR"
		},
		{
			"bufferView":4,
			"componentType":5126,
			"count":55,
			"max":[
				0.22225454449653625,
				0.0010000000474974513,
				-0.0176355242729187
			],
			"min":[
				0.0035278499126434326,
				-0.0010000000474974513,
				-0.1939907670021057
			],
			"type":"VEC3"
		},
		{
			"bufferView":5,
			"componentType":5126,
			"count":55,
			"type":"VEC3"
		},
		{
			"bufferView":6,
			"componentType":5126,
			"count":55,
			"type":"VEC2"
		},
		{
			"bufferView":7,
			"componentType":5123,
			"count":144,
			"type":"SCALAR"
		},
		{
			"bufferView":8,
			"componentType":5126,
			"count":4,
			"max":[
				0.13758614659309387,
				0,
				-0.0352710485458374
			],
			"min":[
				0.09525194764137268,
				0,
				-0.04585236310958862
			],
			"type":"VEC3"
		},
		{
			"bufferView":9,
			"componentType":5126,
			"count":4,
			"type":"VEC3"
		},
		{
			"bufferView":10,
			"componentType":5126,
			"count":4,
			"type":"VEC2"
		},
		{
			"bufferView":11,
			"componentType":5126,
			"count":95,
			"max":[
				0.2257823944091797,
				0.009999999776482582,
				-0.014108419418334961
			],
			"min":[
				0,
				-0.009999999776482582,
				-0.19751787185668945
			],
			"type":"VEC3"
		},
		{
			"bufferView":12,
			"componentType":5126,
			"count":95,
			"type":"VEC3"
		},
		{
			"bufferView":13,
			"componentType":5126,
			"count":95,
			"type":"VEC2"
		},
		{
			"bufferView":14,
			"componentType":5123,
			"count":252,
			"type":"SCALAR"
		},
		{
			"bufferView":15,
			"componentType":5126,
			"count":40,
			"max":[
				0.07055699825286865,
				0.0020000003278255463,
				-0.08465051651000977
			],
			"min":[
				0.04233419895172119,
				-0.0020000003278255463,
				-0.16224682331085205
			],
			"type":"VEC3"
		},
		{
			"bufferView":16,
			"componentType":5126,
			"count":40,
			"type":"VEC3"
		},
		{
			"bufferView":17,
			"componentType":5126,
			"count":40,
			"type":"VEC2"
		},
		{
			"bufferView":18,
			"componentType":5123,
			"count":96,
			"type":"SCALAR"
		},
		{
			"bufferView":19,
			"componentType":5126,
			"count":20,
			"max":[
				0.15522539615631104,
				0.005000000819563866,
				-0.11286735534667969
			],
			"min":[
				0.05644559860229492,
				-0.005000000819563866,
				-0.13402998447418213
			],
			"type":"VEC3"
		},
		{
			"bufferView":20,
			"componentType":5126,
			"count":20,
			"type":"VEC3"
		},
		{
			"bufferView":21,
			"componentType":5126,
			"count":20,
			"type":"VEC2"
		},
		{
			"bufferView":22,
			"componentType":5123,
			"count":48,
			"type":"SCALAR"
		},
		{
			"bufferView":23,
			"componentType":5126,
			"count":20,
			"max":[
				0.14816969633102417,
				0.006000000983476639,
				-0.1410841941833496
			],
			"min":[
				0.07055699825286865,
				-0.006000000983476639,
				-0.16224682331085205
			],
			"type":"VEC3"
		},
		{
			"bufferView":24,
			"componentType":5126,
			"count":20,
			"type":"VEC3"
		},
		{
			"bufferView":25,
			"componentType":5126,
			"count":20,
			"type":"VEC2"
		}
	],
	"bufferViews":[
		{
			"buffer":0,
			"byteLength":48,
			"byteOffset":0,
			"target":34962
		},
		{
			"buffer":0,
			"byteLength":48,
			"byteOffset":48,
			"target":34962
		},
		{
			"buffer":0,
			"byteLength":32,
			"byteOffset":96,
			"target":34962
		},
		{
			"buffer":0,
			"byteLength":12,
			"byteOffset":128,
			"target":34963
		},
		{
			"buffer":0,
			"byteLength":660,
			"byteOffset":140,
			"target":34962
		},
		{
			"buffer":0,
			"byteLength":660,
			"byteOffset":800,
			"target":34962
		},
		{
			"buffer":0,
			"byteLength":440,
			"byteOffset":1460,
			"target":34962
		},
		{
			"buffer":0,
			"byteLength":288,
			"byteOffset":1900,
			"target":34963
		},
		{
			"buffer":0,
			"byteLength":48,
			"byteOffset":2188,
			"target":34962
		},
		{
			"buffer":0,
			"byteLength":48,
			"byteOffset":2236,
			"target":34962
		},
		{
			"buffer":0,
			"byteLength":32,
			"byteOffset":2284,
			"target":34962
		},
		{
			"buffer":0,
			"byteLength":1140,
			"byteOffset":2316,
			"target":34962
		},
		{
			"buffer":0,
			"byteLength":1140,
			"byteOffset":3456,
			"target":34962
		},
		{
			"buffer":0,
			"byteLength":760,
			"byteOffset":4596,
			"target":34962
		},
		{
			"buffer":0,
			"byteLength":504,
			"byteOffset":5356,
			"target":34963
		},
		{
			"buffer":0,
			"byteLength":480,
			"byteOffset":5860,
			"target":34962
		},
		{
			"buffer":0,
			"byteLength":480,
			"byteOffset":6340,
			"target":34962
		},
		{
			"buffer":0,
			"byteLength":320,
			"byteOffset":6820,
			"target":34962
		},
		{
			"buffer":0,
			"byteLength":192,
			"byteOffset":7140,
			"target":34963
		},
		{
			"buffer":0,
			"byteLength":240,
			"byteOffset":7332,
			"target":34962
		},
		{
			"buffer":0,
			"byteLength":240,
			"byteOffset":7572,
			"target":34962
		},
		{
			"buffer":0,
			"byteLength":160,
			"byteOffset":7812,
			"target":34962
		},
		{
			"buffer":0,
			"byteLength":96,
			"byteOffset":7972,
			"target":34963
		},
		{
			"buffer":0,
			"byteLength":240,
			"byteOffset":8068,
			"target":34962
		},
		{
			"buffer":0,
			"byteLength":240,
			"byteOffset":8308,
			"target":34962
		},
		{
			"buffer":0,
			"byteLength":160,
			"byteOffset":8548,
			"target":34962
		}
	],
	"buffers":[
		{
			"byteLength":8708,
			"uri":"data:application/octet-stream;base64,"
		}
	]
}
